<mxfile host="app.diagrams.net" modified="2022-04-27T06:12:57.707Z" agent="5.0 (Windows NT 10.0; Win64; x64) AppleWebKit/537.36 (KHTML, like Gecko) Chrome/100.0.4896.127 Safari/537.36" etag="mdrQKYj6EUVzhb7wPoro" version="17.4.6" type="github">
  <diagram id="SE_jBbkcbK7Lmsm-A9FI" name="Page-1">
    <mxGraphModel dx="1157" dy="589" grid="1" gridSize="10" guides="1" tooltips="1" connect="1" arrows="1" fold="1" page="1" pageScale="1" pageWidth="827" pageHeight="1169" math="0" shadow="0">
      <root>
        <mxCell id="0" />
        <mxCell id="1" parent="0" />
        <mxCell id="lG_a2e4qSaqC1WJL2-aL-3" value="Actor / Actress" style="ellipse;whiteSpace=wrap;html=1;fillColor=#dae8fc;strokeColor=#6c8ebf;" parent="1" vertex="1">
          <mxGeometry x="600" y="760" width="80" height="40" as="geometry" />
        </mxCell>
        <mxCell id="lG_a2e4qSaqC1WJL2-aL-4" value="Video" style="rounded=0;whiteSpace=wrap;html=1;fillColor=#f8cecc;strokeColor=#b85450;" parent="1" vertex="1">
          <mxGeometry x="360" y="800" width="120" height="40" as="geometry" />
        </mxCell>
        <mxCell id="lG_a2e4qSaqC1WJL2-aL-5" value="Genre" style="ellipse;whiteSpace=wrap;html=1;fillColor=#dae8fc;strokeColor=#6c8ebf;" parent="1" vertex="1">
          <mxGeometry x="380" y="640" width="80" height="40" as="geometry" />
        </mxCell>
        <mxCell id="lG_a2e4qSaqC1WJL2-aL-6" value="Language" style="ellipse;whiteSpace=wrap;html=1;fillColor=#dae8fc;strokeColor=#6c8ebf;" parent="1" vertex="1">
          <mxGeometry x="600" y="920" width="80" height="40" as="geometry" />
        </mxCell>
        <mxCell id="lG_a2e4qSaqC1WJL2-aL-7" value="Type" style="ellipse;whiteSpace=wrap;html=1;fillColor=#dae8fc;strokeColor=#6c8ebf;" parent="1" vertex="1">
          <mxGeometry x="380" y="1000" width="80" height="40" as="geometry" />
        </mxCell>
        <mxCell id="lG_a2e4qSaqC1WJL2-aL-8" value="Rating - IMDB" style="ellipse;whiteSpace=wrap;html=1;fillColor=#dae8fc;strokeColor=#6c8ebf;" parent="1" vertex="1">
          <mxGeometry x="160" y="960" width="80" height="40" as="geometry" />
        </mxCell>
        <mxCell id="lG_a2e4qSaqC1WJL2-aL-9" value="Age restrictions" style="ellipse;whiteSpace=wrap;html=1;fillColor=#dae8fc;strokeColor=#6c8ebf;" parent="1" vertex="1">
          <mxGeometry x="160" y="760" width="80" height="40" as="geometry" />
        </mxCell>
        <mxCell id="lG_a2e4qSaqC1WJL2-aL-10" value="Number of Views" style="ellipse;whiteSpace=wrap;html=1;fillColor=#dae8fc;strokeColor=#6c8ebf;" parent="1" vertex="1">
          <mxGeometry x="160" y="680" width="80" height="40" as="geometry" />
        </mxCell>
        <mxCell id="lG_a2e4qSaqC1WJL2-aL-11" value="Date of Release" style="ellipse;whiteSpace=wrap;html=1;fillColor=#dae8fc;strokeColor=#6c8ebf;" parent="1" vertex="1">
          <mxGeometry x="600" y="840" width="80" height="40" as="geometry" />
        </mxCell>
        <mxCell id="lG_a2e4qSaqC1WJL2-aL-23" value="Dubbed or not" style="ellipse;whiteSpace=wrap;html=1;fillColor=#dae8fc;strokeColor=#6c8ebf;" parent="1" vertex="1">
          <mxGeometry x="600" y="680" width="80" height="40" as="geometry" />
        </mxCell>
        <mxCell id="lG_a2e4qSaqC1WJL2-aL-24" value="Movie" style="ellipse;whiteSpace=wrap;html=1;fillColor=#d5e8d4;strokeColor=#82b366;" parent="1" vertex="1">
          <mxGeometry y="1160" width="80" height="40" as="geometry" />
        </mxCell>
        <mxCell id="lG_a2e4qSaqC1WJL2-aL-25" value="Web Series" style="ellipse;whiteSpace=wrap;html=1;fillColor=#d5e8d4;strokeColor=#82b366;" parent="1" vertex="1">
          <mxGeometry x="160" y="1160" width="80" height="40" as="geometry" />
        </mxCell>
        <mxCell id="lG_a2e4qSaqC1WJL2-aL-26" value="TV Shows" style="ellipse;whiteSpace=wrap;html=1;fillColor=#d5e8d4;strokeColor=#82b366;" parent="1" vertex="1">
          <mxGeometry x="320" y="1160" width="80" height="40" as="geometry" />
        </mxCell>
        <mxCell id="lG_a2e4qSaqC1WJL2-aL-27" value="News" style="ellipse;whiteSpace=wrap;html=1;fillColor=#d5e8d4;strokeColor=#82b366;" parent="1" vertex="1">
          <mxGeometry x="480" y="1160" width="80" height="40" as="geometry" />
        </mxCell>
        <mxCell id="lG_a2e4qSaqC1WJL2-aL-28" value="Sports" style="ellipse;whiteSpace=wrap;html=1;fillColor=#d5e8d4;strokeColor=#82b366;" parent="1" vertex="1">
          <mxGeometry x="640" y="1160" width="80" height="40" as="geometry" />
        </mxCell>
        <mxCell id="lG_a2e4qSaqC1WJL2-aL-29" value="Live" style="ellipse;whiteSpace=wrap;html=1;fillColor=#d5e8d4;strokeColor=#82b366;" parent="1" vertex="1">
          <mxGeometry x="800" y="1160" width="80" height="40" as="geometry" />
        </mxCell>
        <mxCell id="lG_a2e4qSaqC1WJL2-aL-30" value="News" style="ellipse;whiteSpace=wrap;html=1;fillColor=#fff2cc;strokeColor=#d6b656;" parent="1" vertex="1">
          <mxGeometry x="960" y="1340" width="80" height="40" as="geometry" />
        </mxCell>
        <mxCell id="lG_a2e4qSaqC1WJL2-aL-31" value="Sports" style="ellipse;whiteSpace=wrap;html=1;fillColor=#fff2cc;strokeColor=#d6b656;" parent="1" vertex="1">
          <mxGeometry x="960" y="1160" width="80" height="40" as="geometry" />
        </mxCell>
        <mxCell id="lG_a2e4qSaqC1WJL2-aL-32" value="IPL" style="ellipse;whiteSpace=wrap;html=1;fillColor=#fff2cc;strokeColor=#d6b656;" parent="1" vertex="1">
          <mxGeometry x="720" y="1400" width="80" height="40" as="geometry" />
        </mxCell>
        <mxCell id="lG_a2e4qSaqC1WJL2-aL-33" value="PL" style="ellipse;whiteSpace=wrap;html=1;fillColor=#fff2cc;strokeColor=#d6b656;" parent="1" vertex="1">
          <mxGeometry x="721" y="1320" width="79" height="40" as="geometry" />
        </mxCell>
        <mxCell id="lG_a2e4qSaqC1WJL2-aL-34" value="F1" style="ellipse;whiteSpace=wrap;html=1;fillColor=#fff2cc;strokeColor=#d6b656;" parent="1" vertex="1">
          <mxGeometry x="720" y="1240" width="76" height="40" as="geometry" />
        </mxCell>
        <mxCell id="lG_a2e4qSaqC1WJL2-aL-48" value="Channels" style="ellipse;whiteSpace=wrap;html=1;fillColor=#fff2cc;strokeColor=#d6b656;" parent="1" vertex="1">
          <mxGeometry x="960" y="1080" width="80" height="40" as="geometry" />
        </mxCell>
        <mxCell id="lG_a2e4qSaqC1WJL2-aL-50" value="Action" style="ellipse;whiteSpace=wrap;html=1;fillColor=#d5e8d4;strokeColor=#82b366;" parent="1" vertex="1">
          <mxGeometry x="520" y="521" width="80" height="39" as="geometry" />
        </mxCell>
        <mxCell id="lG_a2e4qSaqC1WJL2-aL-51" value="Thriller" style="ellipse;whiteSpace=wrap;html=1;fillColor=#d5e8d4;strokeColor=#82b366;" parent="1" vertex="1">
          <mxGeometry x="380" y="521" width="80" height="39" as="geometry" />
        </mxCell>
        <mxCell id="lG_a2e4qSaqC1WJL2-aL-52" value="Comedy" style="ellipse;whiteSpace=wrap;html=1;fillColor=#d5e8d4;strokeColor=#82b366;" parent="1" vertex="1">
          <mxGeometry x="240" y="521" width="80" height="39" as="geometry" />
        </mxCell>
        <mxCell id="4jwLLibL-3xXSaTdZREd-23" value="" style="endArrow=classic;html=1;rounded=0;entryX=0.5;entryY=0;entryDx=0;entryDy=0;exitX=0.502;exitY=0.791;exitDx=0;exitDy=0;exitPerimeter=0;" edge="1" parent="1" target="lG_a2e4qSaqC1WJL2-aL-25">
          <mxGeometry width="50" height="50" relative="1" as="geometry">
            <mxPoint x="200.1099999999999" y="1100.24" as="sourcePoint" />
            <mxPoint x="240" y="1050" as="targetPoint" />
          </mxGeometry>
        </mxCell>
        <mxCell id="4jwLLibL-3xXSaTdZREd-24" value="" style="endArrow=classic;html=1;rounded=0;exitX=0;exitY=0.5;exitDx=0;exitDy=0;exitPerimeter=0;entryX=0.5;entryY=0;entryDx=0;entryDy=0;" edge="1" parent="1" source="4jwLLibL-3xXSaTdZREd-54" target="lG_a2e4qSaqC1WJL2-aL-24">
          <mxGeometry width="50" height="50" relative="1" as="geometry">
            <mxPoint x="39.73999999999995" y="1101.2" as="sourcePoint" />
            <mxPoint x="180" y="1090" as="targetPoint" />
          </mxGeometry>
        </mxCell>
        <mxCell id="4jwLLibL-3xXSaTdZREd-25" value="" style="endArrow=classic;html=1;rounded=0;entryX=0.5;entryY=0;entryDx=0;entryDy=0;exitX=0.496;exitY=0.589;exitDx=0;exitDy=0;exitPerimeter=0;" edge="1" parent="1" target="lG_a2e4qSaqC1WJL2-aL-26">
          <mxGeometry width="50" height="50" relative="1" as="geometry">
            <mxPoint x="359.68999999999994" y="1099.5200000000002" as="sourcePoint" />
            <mxPoint x="410" y="1100" as="targetPoint" />
          </mxGeometry>
        </mxCell>
        <mxCell id="4jwLLibL-3xXSaTdZREd-27" value="" style="endArrow=classic;html=1;rounded=0;entryX=0.5;entryY=0;entryDx=0;entryDy=0;exitX=0.507;exitY=0.386;exitDx=0;exitDy=0;exitPerimeter=0;" edge="1" parent="1" target="lG_a2e4qSaqC1WJL2-aL-27">
          <mxGeometry width="50" height="50" relative="1" as="geometry">
            <mxPoint x="520.06" y="1100.84" as="sourcePoint" />
            <mxPoint x="510" y="1090" as="targetPoint" />
          </mxGeometry>
        </mxCell>
        <mxCell id="4jwLLibL-3xXSaTdZREd-29" value="" style="endArrow=classic;html=1;rounded=0;exitX=0.5;exitY=0.183;exitDx=0;exitDy=0;exitPerimeter=0;" edge="1" parent="1">
          <mxGeometry width="50" height="50" relative="1" as="geometry">
            <mxPoint x="680.4299999999998" y="1100" as="sourcePoint" />
            <mxPoint x="680" y="1160" as="targetPoint" />
          </mxGeometry>
        </mxCell>
        <mxCell id="4jwLLibL-3xXSaTdZREd-35" value="" style="endArrow=classic;html=1;rounded=0;entryX=1;entryY=0;entryDx=0;entryDy=0;entryPerimeter=0;exitX=0.5;exitY=0;exitDx=0;exitDy=0;exitPerimeter=0;" edge="1" parent="1">
          <mxGeometry width="50" height="50" relative="1" as="geometry">
            <mxPoint x="839.88" y="1100" as="sourcePoint" />
            <mxPoint x="839.88" y="1160" as="targetPoint" />
          </mxGeometry>
        </mxCell>
        <mxCell id="4jwLLibL-3xXSaTdZREd-46" style="edgeStyle=orthogonalEdgeStyle;rounded=0;orthogonalLoop=1;jettySize=auto;html=1;exitX=1;exitY=1;exitDx=0;exitDy=0;exitPerimeter=0;entryX=1.024;entryY=1.001;entryDx=0;entryDy=0;entryPerimeter=0;" edge="1" parent="1">
          <mxGeometry relative="1" as="geometry">
            <mxPoint x="720" y="1420" as="sourcePoint" />
            <mxPoint x="720.96" y="1420.1599999999999" as="targetPoint" />
          </mxGeometry>
        </mxCell>
        <mxCell id="4jwLLibL-3xXSaTdZREd-50" value="" style="edgeStyle=segmentEdgeStyle;endArrow=classic;html=1;rounded=0;entryX=0;entryY=0.5;entryDx=0;entryDy=0;exitX=0.452;exitY=1.007;exitDx=0;exitDy=0;exitPerimeter=0;" edge="1" parent="1" source="lG_a2e4qSaqC1WJL2-aL-28" target="lG_a2e4qSaqC1WJL2-aL-34">
          <mxGeometry width="50" height="50" relative="1" as="geometry">
            <mxPoint x="640" y="1310" as="sourcePoint" />
            <mxPoint x="690" y="1260" as="targetPoint" />
            <Array as="points">
              <mxPoint x="680" y="1260" />
            </Array>
          </mxGeometry>
        </mxCell>
        <mxCell id="4jwLLibL-3xXSaTdZREd-51" value="" style="edgeStyle=segmentEdgeStyle;endArrow=classic;html=1;rounded=0;" edge="1" parent="1">
          <mxGeometry width="50" height="50" relative="1" as="geometry">
            <mxPoint x="680" y="1260" as="sourcePoint" />
            <mxPoint x="720" y="1340" as="targetPoint" />
            <Array as="points">
              <mxPoint x="680" y="1340" />
            </Array>
          </mxGeometry>
        </mxCell>
        <mxCell id="4jwLLibL-3xXSaTdZREd-52" value="" style="edgeStyle=segmentEdgeStyle;endArrow=classic;html=1;rounded=0;" edge="1" parent="1">
          <mxGeometry width="50" height="50" relative="1" as="geometry">
            <mxPoint x="680" y="1340" as="sourcePoint" />
            <mxPoint x="720" y="1420" as="targetPoint" />
            <Array as="points">
              <mxPoint x="680" y="1420" />
            </Array>
          </mxGeometry>
        </mxCell>
        <mxCell id="4jwLLibL-3xXSaTdZREd-53" value="" style="edgeStyle=elbowEdgeStyle;elbow=horizontal;endArrow=classic;html=1;rounded=0;entryX=0;entryY=0.5;entryDx=0;entryDy=0;exitX=1;exitY=0.5;exitDx=0;exitDy=0;" edge="1" parent="1" source="lG_a2e4qSaqC1WJL2-aL-29" target="lG_a2e4qSaqC1WJL2-aL-48">
          <mxGeometry width="50" height="50" relative="1" as="geometry">
            <mxPoint x="866" y="1190" as="sourcePoint" />
            <mxPoint x="916" y="1140" as="targetPoint" />
            <Array as="points">
              <mxPoint x="900" y="1150" />
            </Array>
          </mxGeometry>
        </mxCell>
        <mxCell id="4jwLLibL-3xXSaTdZREd-54" value="" style="line;strokeWidth=2;html=1;" vertex="1" parent="1">
          <mxGeometry x="40" y="1095" width="800" height="10" as="geometry" />
        </mxCell>
        <mxCell id="4jwLLibL-3xXSaTdZREd-55" value="" style="endArrow=classic;html=1;rounded=0;entryX=0;entryY=0.5;entryDx=0;entryDy=0;" edge="1" parent="1" target="lG_a2e4qSaqC1WJL2-aL-31">
          <mxGeometry width="50" height="50" relative="1" as="geometry">
            <mxPoint x="900" y="1180" as="sourcePoint" />
            <mxPoint x="950" y="1170" as="targetPoint" />
          </mxGeometry>
        </mxCell>
        <mxCell id="4jwLLibL-3xXSaTdZREd-56" value="" style="edgeStyle=elbowEdgeStyle;elbow=horizontal;endArrow=classic;html=1;rounded=0;entryX=0;entryY=0.5;entryDx=0;entryDy=0;exitX=1;exitY=0.5;exitDx=0;exitDy=0;" edge="1" parent="1" source="lG_a2e4qSaqC1WJL2-aL-29" target="lG_a2e4qSaqC1WJL2-aL-30">
          <mxGeometry width="50" height="50" relative="1" as="geometry">
            <mxPoint x="860" y="1250" as="sourcePoint" />
            <mxPoint x="910" y="1200" as="targetPoint" />
            <Array as="points">
              <mxPoint x="900" y="1220" />
            </Array>
          </mxGeometry>
        </mxCell>
        <mxCell id="4jwLLibL-3xXSaTdZREd-57" value="" style="line;strokeWidth=2;direction=south;html=1;" vertex="1" parent="1">
          <mxGeometry x="415" y="1040" width="10" height="60" as="geometry" />
        </mxCell>
        <mxCell id="4jwLLibL-3xXSaTdZREd-58" value="Regional" style="ellipse;whiteSpace=wrap;html=1;fillColor=#fff2cc;strokeColor=#d6b656;" vertex="1" parent="1">
          <mxGeometry x="560" y="1240" width="80" height="40" as="geometry" />
        </mxCell>
        <mxCell id="4jwLLibL-3xXSaTdZREd-59" value="National" style="ellipse;whiteSpace=wrap;html=1;fillColor=#fff2cc;strokeColor=#d6b656;" vertex="1" parent="1">
          <mxGeometry x="560" y="1320" width="80" height="40" as="geometry" />
        </mxCell>
        <mxCell id="4jwLLibL-3xXSaTdZREd-60" value="International" style="ellipse;whiteSpace=wrap;html=1;fillColor=#fff2cc;strokeColor=#d6b656;" vertex="1" parent="1">
          <mxGeometry x="560" y="1400" width="80" height="40" as="geometry" />
        </mxCell>
        <mxCell id="4jwLLibL-3xXSaTdZREd-61" value="" style="edgeStyle=segmentEdgeStyle;endArrow=classic;html=1;rounded=0;entryX=0;entryY=0.5;entryDx=0;entryDy=0;" edge="1" parent="1" target="4jwLLibL-3xXSaTdZREd-58">
          <mxGeometry width="50" height="50" relative="1" as="geometry">
            <mxPoint x="520" y="1200" as="sourcePoint" />
            <mxPoint x="540" y="1280" as="targetPoint" />
            <Array as="points">
              <mxPoint x="520" y="1260" />
            </Array>
          </mxGeometry>
        </mxCell>
        <mxCell id="4jwLLibL-3xXSaTdZREd-62" value="" style="edgeStyle=segmentEdgeStyle;endArrow=classic;html=1;rounded=0;" edge="1" parent="1">
          <mxGeometry width="50" height="50" relative="1" as="geometry">
            <mxPoint x="520" y="1260" as="sourcePoint" />
            <mxPoint x="560" y="1340" as="targetPoint" />
            <Array as="points">
              <mxPoint x="520" y="1340" />
              <mxPoint x="520" y="1340" />
            </Array>
          </mxGeometry>
        </mxCell>
        <mxCell id="4jwLLibL-3xXSaTdZREd-63" value="" style="edgeStyle=segmentEdgeStyle;endArrow=classic;html=1;rounded=0;" edge="1" parent="1">
          <mxGeometry width="50" height="50" relative="1" as="geometry">
            <mxPoint x="520" y="1340" as="sourcePoint" />
            <mxPoint x="560" y="1420" as="targetPoint" />
            <Array as="points">
              <mxPoint x="520" y="1420" />
            </Array>
          </mxGeometry>
        </mxCell>
        <mxCell id="4jwLLibL-3xXSaTdZREd-64" value="" style="endArrow=classic;html=1;rounded=0;exitX=0.5;exitY=1;exitDx=0;exitDy=0;" edge="1" parent="1" source="lG_a2e4qSaqC1WJL2-aL-4" target="lG_a2e4qSaqC1WJL2-aL-7">
          <mxGeometry width="50" height="50" relative="1" as="geometry">
            <mxPoint x="500" y="970" as="sourcePoint" />
            <mxPoint x="550" y="920" as="targetPoint" />
          </mxGeometry>
        </mxCell>
        <mxCell id="4jwLLibL-3xXSaTdZREd-65" value="" style="edgeStyle=elbowEdgeStyle;elbow=horizontal;endArrow=classic;html=1;rounded=0;entryX=0;entryY=0.5;entryDx=0;entryDy=0;" edge="1" parent="1" target="lG_a2e4qSaqC1WJL2-aL-23">
          <mxGeometry width="50" height="50" relative="1" as="geometry">
            <mxPoint x="480" y="820" as="sourcePoint" />
            <mxPoint x="530" y="770" as="targetPoint" />
          </mxGeometry>
        </mxCell>
        <mxCell id="4jwLLibL-3xXSaTdZREd-66" value="" style="endArrow=classic;html=1;rounded=0;" edge="1" parent="1" target="lG_a2e4qSaqC1WJL2-aL-3">
          <mxGeometry width="50" height="50" relative="1" as="geometry">
            <mxPoint x="540" y="780" as="sourcePoint" />
            <mxPoint x="450" y="690" as="targetPoint" />
          </mxGeometry>
        </mxCell>
        <mxCell id="4jwLLibL-3xXSaTdZREd-68" value="" style="edgeStyle=elbowEdgeStyle;elbow=horizontal;endArrow=classic;html=1;rounded=0;entryX=0;entryY=0.5;entryDx=0;entryDy=0;" edge="1" parent="1" target="lG_a2e4qSaqC1WJL2-aL-6">
          <mxGeometry width="50" height="50" relative="1" as="geometry">
            <mxPoint x="480" y="820" as="sourcePoint" />
            <mxPoint x="560" y="870" as="targetPoint" />
          </mxGeometry>
        </mxCell>
        <mxCell id="4jwLLibL-3xXSaTdZREd-69" value="" style="endArrow=classic;html=1;rounded=0;entryX=0;entryY=0.5;entryDx=0;entryDy=0;" edge="1" parent="1" target="lG_a2e4qSaqC1WJL2-aL-11">
          <mxGeometry width="50" height="50" relative="1" as="geometry">
            <mxPoint x="540" y="860" as="sourcePoint" />
            <mxPoint x="330" y="780" as="targetPoint" />
          </mxGeometry>
        </mxCell>
        <mxCell id="4jwLLibL-3xXSaTdZREd-72" value="" style="edgeStyle=elbowEdgeStyle;elbow=horizontal;endArrow=classic;html=1;rounded=0;entryX=1;entryY=0.5;entryDx=0;entryDy=0;exitX=0;exitY=0.5;exitDx=0;exitDy=0;" edge="1" parent="1" source="lG_a2e4qSaqC1WJL2-aL-4" target="lG_a2e4qSaqC1WJL2-aL-10">
          <mxGeometry width="50" height="50" relative="1" as="geometry">
            <mxPoint x="340" y="850" as="sourcePoint" />
            <mxPoint x="390" y="800" as="targetPoint" />
            <Array as="points">
              <mxPoint x="300" y="820" />
            </Array>
          </mxGeometry>
        </mxCell>
        <mxCell id="4jwLLibL-3xXSaTdZREd-73" value="" style="edgeStyle=elbowEdgeStyle;elbow=horizontal;endArrow=classic;html=1;rounded=0;entryX=1;entryY=0.5;entryDx=0;entryDy=0;" edge="1" parent="1" target="lG_a2e4qSaqC1WJL2-aL-8">
          <mxGeometry width="50" height="50" relative="1" as="geometry">
            <mxPoint x="360" y="820" as="sourcePoint" />
            <mxPoint x="340" y="870" as="targetPoint" />
          </mxGeometry>
        </mxCell>
        <mxCell id="4jwLLibL-3xXSaTdZREd-74" value="" style="endArrow=classic;html=1;rounded=0;entryX=1;entryY=0.5;entryDx=0;entryDy=0;" edge="1" parent="1" target="lG_a2e4qSaqC1WJL2-aL-9">
          <mxGeometry width="50" height="50" relative="1" as="geometry">
            <mxPoint x="300" y="780" as="sourcePoint" />
            <mxPoint x="390" y="800" as="targetPoint" />
          </mxGeometry>
        </mxCell>
        <mxCell id="4jwLLibL-3xXSaTdZREd-75" value="Regional" style="ellipse;whiteSpace=wrap;html=1;fillColor=#d5e8d4;strokeColor=#82b366;" vertex="1" parent="1">
          <mxGeometry x="760" y="880" width="80" height="40" as="geometry" />
        </mxCell>
        <mxCell id="4jwLLibL-3xXSaTdZREd-76" value="International" style="ellipse;whiteSpace=wrap;html=1;fillColor=#d5e8d4;strokeColor=#82b366;" vertex="1" parent="1">
          <mxGeometry x="760" y="960" width="80" height="40" as="geometry" />
        </mxCell>
        <mxCell id="4jwLLibL-3xXSaTdZREd-77" value="" style="edgeStyle=elbowEdgeStyle;elbow=horizontal;endArrow=classic;html=1;rounded=0;entryX=0;entryY=0.5;entryDx=0;entryDy=0;" edge="1" parent="1" target="4jwLLibL-3xXSaTdZREd-75">
          <mxGeometry width="50" height="50" relative="1" as="geometry">
            <mxPoint x="680" y="940" as="sourcePoint" />
            <mxPoint x="730" y="890" as="targetPoint" />
          </mxGeometry>
        </mxCell>
        <mxCell id="4jwLLibL-3xXSaTdZREd-78" value="" style="edgeStyle=elbowEdgeStyle;elbow=horizontal;endArrow=classic;html=1;rounded=0;exitX=1;exitY=0.5;exitDx=0;exitDy=0;" edge="1" parent="1" source="lG_a2e4qSaqC1WJL2-aL-6">
          <mxGeometry width="50" height="50" relative="1" as="geometry">
            <mxPoint x="710" y="1030" as="sourcePoint" />
            <mxPoint x="760" y="980" as="targetPoint" />
          </mxGeometry>
        </mxCell>
        <mxCell id="4jwLLibL-3xXSaTdZREd-79" value="" style="endArrow=classic;html=1;rounded=0;exitX=1;exitY=0.5;exitDx=0;exitDy=0;" edge="1" parent="1" source="lG_a2e4qSaqC1WJL2-aL-3">
          <mxGeometry width="50" height="50" relative="1" as="geometry">
            <mxPoint x="680" y="700" as="sourcePoint" />
            <mxPoint x="760" y="780" as="targetPoint" />
          </mxGeometry>
        </mxCell>
        <mxCell id="4jwLLibL-3xXSaTdZREd-80" value="Languages" style="ellipse;whiteSpace=wrap;html=1;fillColor=#d5e8d4;strokeColor=#82b366;" vertex="1" parent="1">
          <mxGeometry x="760" y="760" width="80" height="40" as="geometry" />
        </mxCell>
        <mxCell id="4jwLLibL-3xXSaTdZREd-81" value="" style="endArrow=classic;html=1;rounded=0;exitX=0.5;exitY=0;exitDx=0;exitDy=0;entryX=0.5;entryY=1;entryDx=0;entryDy=0;" edge="1" parent="1" source="lG_a2e4qSaqC1WJL2-aL-4" target="lG_a2e4qSaqC1WJL2-aL-5">
          <mxGeometry width="50" height="50" relative="1" as="geometry">
            <mxPoint x="520" y="740" as="sourcePoint" />
            <mxPoint x="570" y="690" as="targetPoint" />
          </mxGeometry>
        </mxCell>
        <mxCell id="4jwLLibL-3xXSaTdZREd-83" value="" style="edgeStyle=elbowEdgeStyle;elbow=vertical;endArrow=classic;html=1;rounded=0;entryX=0.5;entryY=1;entryDx=0;entryDy=0;exitX=0.5;exitY=0;exitDx=0;exitDy=0;" edge="1" parent="1" source="lG_a2e4qSaqC1WJL2-aL-5" target="lG_a2e4qSaqC1WJL2-aL-50">
          <mxGeometry width="50" height="50" relative="1" as="geometry">
            <mxPoint x="430" y="650" as="sourcePoint" />
            <mxPoint x="480" y="600" as="targetPoint" />
            <Array as="points">
              <mxPoint x="490" y="610" />
            </Array>
          </mxGeometry>
        </mxCell>
        <mxCell id="4jwLLibL-3xXSaTdZREd-84" value="" style="edgeStyle=elbowEdgeStyle;elbow=vertical;endArrow=classic;html=1;rounded=0;entryX=0.5;entryY=1;entryDx=0;entryDy=0;" edge="1" parent="1" target="lG_a2e4qSaqC1WJL2-aL-52">
          <mxGeometry width="50" height="50" relative="1" as="geometry">
            <mxPoint x="420" y="640" as="sourcePoint" />
            <mxPoint x="360" y="600" as="targetPoint" />
            <Array as="points">
              <mxPoint x="350" y="610" />
            </Array>
          </mxGeometry>
        </mxCell>
        <mxCell id="4jwLLibL-3xXSaTdZREd-85" value="" style="endArrow=classic;html=1;rounded=0;entryX=0.5;entryY=1;entryDx=0;entryDy=0;" edge="1" parent="1" target="lG_a2e4qSaqC1WJL2-aL-51">
          <mxGeometry width="50" height="50" relative="1" as="geometry">
            <mxPoint x="420" y="610" as="sourcePoint" />
            <mxPoint x="430" y="640" as="targetPoint" />
          </mxGeometry>
        </mxCell>
        <mxCell id="4jwLLibL-3xXSaTdZREd-87" value="" style="edgeStyle=elbowEdgeStyle;elbow=horizontal;endArrow=classic;html=1;rounded=0;" edge="1" parent="1">
          <mxGeometry width="50" height="50" relative="1" as="geometry">
            <mxPoint x="160" y="780" as="sourcePoint" />
            <mxPoint x="120" y="740" as="targetPoint" />
          </mxGeometry>
        </mxCell>
        <mxCell id="4jwLLibL-3xXSaTdZREd-88" value="Above 18" style="ellipse;whiteSpace=wrap;html=1;fillColor=#d5e8d4;strokeColor=#82b366;" vertex="1" parent="1">
          <mxGeometry x="40" y="720" width="80" height="40" as="geometry" />
        </mxCell>
        <mxCell id="4jwLLibL-3xXSaTdZREd-90" value="" style="edgeStyle=elbowEdgeStyle;elbow=horizontal;endArrow=classic;html=1;rounded=0;exitX=0;exitY=0.5;exitDx=0;exitDy=0;entryX=1;entryY=0.5;entryDx=0;entryDy=0;" edge="1" parent="1" source="lG_a2e4qSaqC1WJL2-aL-9" target="4jwLLibL-3xXSaTdZREd-91">
          <mxGeometry width="50" height="50" relative="1" as="geometry">
            <mxPoint x="160" y="830" as="sourcePoint" />
            <mxPoint x="120" y="860" as="targetPoint" />
          </mxGeometry>
        </mxCell>
        <mxCell id="4jwLLibL-3xXSaTdZREd-91" value="Universal" style="ellipse;whiteSpace=wrap;html=1;fillColor=#d5e8d4;strokeColor=#82b366;" vertex="1" parent="1">
          <mxGeometry x="40" y="800" width="80" height="40" as="geometry" />
        </mxCell>
        <mxCell id="4jwLLibL-3xXSaTdZREd-92" value="Time spent" style="ellipse;whiteSpace=wrap;html=1;fillColor=#dae8fc;strokeColor=#6c8ebf;" vertex="1" parent="1">
          <mxGeometry x="160" y="880" width="80" height="40" as="geometry" />
        </mxCell>
        <mxCell id="4jwLLibL-3xXSaTdZREd-93" value="" style="endArrow=classic;html=1;rounded=0;entryX=1;entryY=0.5;entryDx=0;entryDy=0;" edge="1" parent="1" target="4jwLLibL-3xXSaTdZREd-92">
          <mxGeometry width="50" height="50" relative="1" as="geometry">
            <mxPoint x="300" y="900" as="sourcePoint" />
            <mxPoint x="330" y="830" as="targetPoint" />
          </mxGeometry>
        </mxCell>
        <mxCell id="4jwLLibL-3xXSaTdZREd-94" value="" style="endArrow=classic;html=1;rounded=0;" edge="1" parent="1" target="4jwLLibL-3xXSaTdZREd-95">
          <mxGeometry width="50" height="50" relative="1" as="geometry">
            <mxPoint x="840" y="900" as="sourcePoint" />
            <mxPoint x="920" y="900" as="targetPoint" />
          </mxGeometry>
        </mxCell>
        <mxCell id="4jwLLibL-3xXSaTdZREd-95" value="Kannada&lt;br&gt;Telugu&lt;br&gt;Tamil&lt;br&gt;Malayalam&lt;br&gt;Marathi" style="ellipse;whiteSpace=wrap;html=1;fillColor=#fff2cc;strokeColor=#d6b656;" vertex="1" parent="1">
          <mxGeometry x="920" y="860" width="120" height="80" as="geometry" />
        </mxCell>
        <mxCell id="4jwLLibL-3xXSaTdZREd-96" value="" style="endArrow=classic;html=1;rounded=0;exitX=1;exitY=0.5;exitDx=0;exitDy=0;" edge="1" parent="1" source="4jwLLibL-3xXSaTdZREd-76" target="4jwLLibL-3xXSaTdZREd-97">
          <mxGeometry width="50" height="50" relative="1" as="geometry">
            <mxPoint x="780" y="930" as="sourcePoint" />
            <mxPoint x="920" y="980" as="targetPoint" />
          </mxGeometry>
        </mxCell>
        <mxCell id="4jwLLibL-3xXSaTdZREd-97" value="English&amp;nbsp;&lt;br&gt;Spanish&amp;nbsp;&lt;br&gt;Arabic&lt;br&gt;Italian" style="ellipse;whiteSpace=wrap;html=1;fillColor=#fff2cc;strokeColor=#d6b656;" vertex="1" parent="1">
          <mxGeometry x="920" y="950" width="120" height="70" as="geometry" />
        </mxCell>
        <mxCell id="4jwLLibL-3xXSaTdZREd-98" value="" style="edgeStyle=elbowEdgeStyle;elbow=horizontal;endArrow=classic;html=1;rounded=0;entryX=0;entryY=0.5;entryDx=0;entryDy=0;exitX=1;exitY=0.5;exitDx=0;exitDy=0;" edge="1" parent="1" source="lG_a2e4qSaqC1WJL2-aL-30" target="4jwLLibL-3xXSaTdZREd-100">
          <mxGeometry width="50" height="50" relative="1" as="geometry">
            <mxPoint x="1040" y="1260" as="sourcePoint" />
            <mxPoint x="1110" y="1220" as="targetPoint" />
            <Array as="points">
              <mxPoint x="1070" y="1340" />
            </Array>
          </mxGeometry>
        </mxCell>
        <mxCell id="4jwLLibL-3xXSaTdZREd-99" value="" style="edgeStyle=elbowEdgeStyle;elbow=horizontal;endArrow=classic;html=1;rounded=0;exitX=1;exitY=0.5;exitDx=0;exitDy=0;entryX=0;entryY=0.5;entryDx=0;entryDy=0;" edge="1" parent="1" source="lG_a2e4qSaqC1WJL2-aL-30" target="4jwLLibL-3xXSaTdZREd-103">
          <mxGeometry width="50" height="50" relative="1" as="geometry">
            <mxPoint x="1040" y="1320" as="sourcePoint" />
            <mxPoint x="1120" y="1400" as="targetPoint" />
            <Array as="points">
              <mxPoint x="1070" y="1420" />
            </Array>
          </mxGeometry>
        </mxCell>
        <mxCell id="4jwLLibL-3xXSaTdZREd-100" value="Regional" style="ellipse;whiteSpace=wrap;html=1;fillColor=#f0a30a;strokeColor=#BD7000;fontColor=#000000;" vertex="1" parent="1">
          <mxGeometry x="1120" y="1300" width="70" height="30" as="geometry" />
        </mxCell>
        <mxCell id="4jwLLibL-3xXSaTdZREd-101" value="" style="endArrow=classic;html=1;rounded=0;fillColor=#f0a30a;strokeColor=#BD7000;" edge="1" parent="1">
          <mxGeometry width="50" height="50" relative="1" as="geometry">
            <mxPoint x="1070" y="1360" as="sourcePoint" />
            <mxPoint x="1120" y="1360" as="targetPoint" />
          </mxGeometry>
        </mxCell>
        <mxCell id="4jwLLibL-3xXSaTdZREd-102" value="National" style="ellipse;whiteSpace=wrap;html=1;fillColor=#f0a30a;strokeColor=#BD7000;fontColor=#000000;" vertex="1" parent="1">
          <mxGeometry x="1120" y="1345" width="70" height="30" as="geometry" />
        </mxCell>
        <mxCell id="4jwLLibL-3xXSaTdZREd-103" value="International" style="ellipse;whiteSpace=wrap;html=1;fillColor=#f0a30a;strokeColor=#BD7000;fontColor=#000000;" vertex="1" parent="1">
          <mxGeometry x="1120" y="1390" width="70" height="30" as="geometry" />
        </mxCell>
        <mxCell id="4jwLLibL-3xXSaTdZREd-105" value="" style="edgeStyle=elbowEdgeStyle;elbow=horizontal;endArrow=classic;html=1;rounded=0;" edge="1" parent="1" target="4jwLLibL-3xXSaTdZREd-106">
          <mxGeometry width="50" height="50" relative="1" as="geometry">
            <mxPoint x="1040" y="1180" as="sourcePoint" />
            <mxPoint x="1110" y="1150" as="targetPoint" />
          </mxGeometry>
        </mxCell>
        <mxCell id="4jwLLibL-3xXSaTdZREd-106" value="Cricket" style="ellipse;whiteSpace=wrap;html=1;fillColor=#f0a30a;strokeColor=#BD7000;fontColor=#000000;" vertex="1" parent="1">
          <mxGeometry x="1080" y="1130" width="60" height="20" as="geometry" />
        </mxCell>
        <mxCell id="4jwLLibL-3xXSaTdZREd-107" value="" style="edgeStyle=elbowEdgeStyle;elbow=horizontal;endArrow=classic;html=1;rounded=0;exitX=1;exitY=0.5;exitDx=0;exitDy=0;entryX=0;entryY=0.5;entryDx=0;entryDy=0;" edge="1" parent="1" source="lG_a2e4qSaqC1WJL2-aL-31" target="4jwLLibL-3xXSaTdZREd-108">
          <mxGeometry width="50" height="50" relative="1" as="geometry">
            <mxPoint x="1010" y="1280" as="sourcePoint" />
            <mxPoint x="1080" y="1210" as="targetPoint" />
            <Array as="points">
              <mxPoint x="1060" y="1210" />
            </Array>
          </mxGeometry>
        </mxCell>
        <mxCell id="4jwLLibL-3xXSaTdZREd-108" value="Football" style="ellipse;whiteSpace=wrap;html=1;fillColor=#f0a30a;strokeColor=#BD7000;fontColor=#000000;" vertex="1" parent="1">
          <mxGeometry x="1080" y="1210" width="60" height="20" as="geometry" />
        </mxCell>
        <mxCell id="4jwLLibL-3xXSaTdZREd-109" value="" style="endArrow=classic;html=1;rounded=0;" edge="1" parent="1" target="4jwLLibL-3xXSaTdZREd-110">
          <mxGeometry width="50" height="50" relative="1" as="geometry">
            <mxPoint x="1060" y="1180" as="sourcePoint" />
            <mxPoint x="1080" y="1180" as="targetPoint" />
          </mxGeometry>
        </mxCell>
        <mxCell id="4jwLLibL-3xXSaTdZREd-110" value="Tennis" style="ellipse;whiteSpace=wrap;html=1;fillColor=#f0a30a;strokeColor=#BD7000;fontColor=#000000;" vertex="1" parent="1">
          <mxGeometry x="1080" y="1170" width="60" height="20" as="geometry" />
        </mxCell>
      </root>
    </mxGraphModel>
  </diagram>
</mxfile>
